:SAMPLES-PER-SECOND 30
:FRAME-RANGE 1-2775
:FULLY-SPECIFIED
:DEGREES
608
root  29.3358 38.4168 27.1694 1.69208 -14.9529 8.08112
RightUpLeg  -19.428 -3.07617 -13.7161
RightLeg  33.7932 -5.56169 -4.24093
RightFoot  -16.7577 0.380529 10.4281
RightToes  -5.28216e-011 1.2921e-014 -6.02303e-014
Spine  14.2696 -0.357895 7.69419
Spine1  -4.6274 1.73054 -8.1226
HEad  -6.17725 -51.8397 -10.4563
LeftShoulder1  0.850904 1.24159 -31.5385
LeftArm  -0.620833 21.5976 -22.641
LeftForeArm  19.2827 -44.1626 -9.55091
LeftHand  0.365561 -0.945293 -6.6365
RightShoulder  5.52976 6.75319 47.2287
RightArm  2.21871 -9.62458 9.9802
RightForeArm  -134.209 49.5262 171.521
RightHand  6.84508 34.3089 18.8577
LeftUpLeg  -10.833 8.5958 4.84066
LeftLeg  15.9845 -10.0809 -3.13993
LeftFoot  -8.05927 0.438086 -13.5603
LeftToes  -2.158e-010 -1.26819e-010 -1.05346e-011
609
root  28.9428 38.67 27.2072 1.62955 -15.908 6.95106
RightUpLeg  -17.7995 -3.02302 -11.826
RightLeg  31.1498 -5.04441 -3.52324
RightFoot  -16.0803 0.278 9.34126
RightToes  -5.28216e-011 1.2921e-014 -6.02303e-014
Spine  13.1468 0.012145 8.60121
Spine1  -3.42804 2.08062 -7.2426
HEad  -6.62052 -51.2892 -10.8296
LeftShoulder1  0.84063 1.24919 -31.208
LeftArm  -0.609308 21.7872 -24.7875
LeftForeArm  19.5955 -43.2989 -9.22459
LeftHand  0.354546 -1.01482 -6.35651
RightShoulder  6.48703 8.5839 46.9984
RightArm  4.14904 -8.79286 10.4796
RightForeArm  -138.606 50.1321 171.118
RightHand  9.47952 34.2147 26.1854
LeftUpLeg  -8.76839 10.2657 6.95331
LeftLeg  13.2877 -10.8806 -3.23683
LeftFoot  -5.63868 0.740617 -14.1353
LeftToes  -2.158e-010 -1.26819e-010 -1.05346e-011
610
root  28.6203 39.0879 27.2141 1.40512 -16.3456 6.69024
RightUpLeg  -15.4018 -3.91092 -11.0379
RightLeg  26.9658 -4.05789 -2.46983
RightFoot  -14.612 0.145089 8.54605
RightToes  -5.28216e-011 1.2921e-014 -6.02303e-014
Spine  12.4161 0.449158 9.31713
Spine1  -2.18257 2.54164 -6.683
HEad  -9.31081 -50.7213 -10.7102
LeftShoulder1  0.919828 1.07143 -31.7442
LeftArm  1.39558 20.4876 -25.8904
LeftForeArm  18.9848 -42.287 -8.92098
LeftHand  0.37079 -1.12095 -6.53142
RightShoulder  6.94775 9.25599 47.6934
RightArm  4.19457 -8.46664 10.1952
RightForeArm  -137.924 51.1187 170.799
RightHand  8.4032 32.8126 24.1233
LeftUpLeg  -7.02705 10.6207 8.02877
LeftLeg  10.3111 -10.3225 -3.11331
LeftFoot  -1.188 1.42374 -15.8627
LeftToes  -2.158e-010 -1.26819e-010 -1.05346e-011
611
root  28.4007 39.5552 27.195 1.5351 -15.9885 7.07583
RightUpLeg  -13.1181 -5.99649 -11.0938
RightLeg  22.0718 -2.80584 -1.47125
RightFoot  -12.4202 -0.00810216 8.09649
RightToes  -5.28216e-011 1.2921e-014 -6.02303e-014
Spine  12.6097 0.605309 10.0554
Spine1  -2.42226 2.7349 -6.47362
HEad  -12.2687 -49.7221 -9.81877
LeftShoulder1  0.903078 1.12913 -31.9571
LeftArm  3.38707 19.6606 -26.795
LeftForeArm  18.7807 -41.843 -8.78686
LeftHand  0.404892 -1.20402 -7.04138
RightShoulder  6.56183 8.39914 48.2983
RightArm  4.57479 -9.68838 9.66141
RightForeArm  -139.322 51.5768 170.565
RightHand  8.70748 35.2611 23.4199
LeftUpLeg  -6.53953 9.94003 8.01033
LeftLeg  7.78359 -9.11544 -2.83419
LeftFoot  4.09092 2.46165 -18.2204
LeftToes  -2.158e-010 -1.26819e-010 -1.05346e-011
612
root  28.2801 40.051 27.1535 2.59668 -15.6864 7.78143
RightUpLeg  -11.613 -9.97356 -11.3316
RightLeg  16.1499 -0.067882 -0.458869
RightFoot  -9.12901 -0.207168 7.50108
RightToes  -5.28216e-011 1.2921e-014 -6.02303e-014
Spine  12.6726 0.668507 10.682
Spine1  -3.71849 2.77273 -6.68855
HEad  -15.7141 -48.3407 -8.40862
LeftShoulder1  0.761241 1.52017 -32.2967
LeftArm  2.94023 20.637 -27.1451
LeftForeArm  19.2181 -43.5124 -9.325
LeftHand  0.443274 -1.15343 -7.78289
RightShoulder  5.84818 7.28253 47.4984
RightArm  6.33096 -11.066 9.60072
RightForeArm  -140.088 52.0552 170.349
RightHand  7.88795 36.245 20.6812
LeftUpLeg  -7.43773 9.33822 7.42832
LeftLeg  5.36127 -7.32448 -2.95041
LeftFoot  10.6758 3.79905 -19.6989
LeftToes  -2.158e-010 -1.26819e-010 -1.05346e-011
613
root  28.2402 40.4484 27.1031 4.16501 -16.3396 8.78951
RightUpLeg  -11.4342 -12.0772 -12.0206
RightLeg  11.0533 2.18074 0.444611
RightFoot  -5.83461 -0.379779 7.06084
RightToes  -5.28216e-011 1.2921e-014 -6.02303e-014
Spine  13.0245 0.867553 11.8391
Spine1  -6.20537 3.12344 -8.34175
HEad  -17.7421 -46.8277 -7.80701
LeftShoulder1  0.609678 1.92181 -32.4515
LeftArm  1.66395 22.393 -26.8097
LeftForeArm  19.0657 -45.0773 -9.90018
LeftHand  0.463599 -1.17178 -8.11873
RightShoulder  5.38451 6.711 46.1539
RightArm  8.1909 -12.0227 9.5232
RightForeArm  -139.786 53.0547 169.978
RightHand  5.76226 34.6012 15.7039
LeftUpLeg  -8.56189 9.09095 6.77847
LeftLeg  2.65383 -5.09767 -3.79638
LeftFoot  16.8249 4.98866 -20.1267
LeftToes  -2.158e-010 -1.26819e-010 -1.05346e-011
614
root  28.2501 40.6714 27.0288 5.54294 -17.3218 9.86804
RightUpLeg  -12.3019 -12.759 -12.7405
RightLeg  8.0572 3.47392 0.826229
RightFoot  -3.40152 -0.471574 6.45329
RightToes  -5.28216e-011 1.2921e-014 -6.02303e-014
Spine  13.8739 1.22772 12.9168
Spine1  -9.46864 3.57538 -10.4679
HEad  -18.687 -45.6967 -7.25028
LeftShoulder1  0.508402 2.18967 -32.5947
LeftArm  0.380319 23.4009 -25.6705
LeftForeArm  19.2405 -45.8791 -10.1903
LeftHand  0.459228 -1.04796 -8.21013
RightShoulder  5.00057 6.21967 44.9936
RightArm  9.18823 -12.4715 9.87552
RightForeArm  -137.747 54.3855 169.54
RightHand  3.134 29.7093 9.63205
LeftUpLeg  -9.5372 9.16752 6.13507
LeftLeg  0.428883 -4.47803 -4.78803
LeftFoot  21.3765 5.59777 -19.3742
LeftToes  -2.158e-010 -1.26819e-010 -1.05346e-011
615
root  28.2462 40.7481 26.9725 6.19864 -17.501 10.6981
RightUpLeg  -12.9949 -13.1994 -13.3343
RightLeg  7.12685 4.10018 0.836271
RightFoot  -2.57929 -0.509869 6.41802
RightToes  -5.28216e-011 1.2921e-014 -6.02303e-014
Spine  14.1493 1.31486 13.0569
Spine1  -11.3142 3.52127 -11.1423
HEad  -19.1352 -44.1227 -6.5889
LeftShoulder1  0.456128 2.33067 -32.7849
LeftArm  -1.18878 23.5377 -24.7419
LeftForeArm  19.7477 -46.1924 -10.2742
LeftHand  0.426173 -0.952002 -7.74003
RightShoulder  4.9093 6.23064 44.0834
RightArm  9.90126 -12.1014 10.1559
RightForeArm  -147.453 55.7883 168.401
RightHand  2.34525 22.5521 9.11129
LeftUpLeg  -10.3683 8.96599 5.67819
LeftLeg  -0.0623588 -5.88208 -5.12855
LeftFoot  22.8936 5.97503 -19.7093
LeftToes  -2.158e-010 -1.26819e-010 -1.05346e-011
616
root  28.2363 40.7087 26.9587 6.00134 -16.572 10.9962
RightUpLeg  -12.913 -13.452 -13.7176
RightLeg  7.83562 3.56804 0.654035
RightFoot  -2.96362 -0.520966 6.82837
RightToes  -5.28216e-011 1.2921e-014 -6.02303e-014
Spine  13.1975 1.10081 12.5976
Spine1  -10.7943 3.09643 -10.3065
HEad  -18.5298 -42.1428 -5.55824
LeftShoulder1  0.479843 2.26457 -32.6266
LeftArm  -2.30472 22.5346 -24.7493
LeftForeArm  20.2591 -45.7539 -10.0689
LeftHand  0.387832 -0.891472 -7.11205
RightShoulder  5.14604 6.76374 43.7921
RightArm  9.05467 -9.73062 10.2461
RightForeArm  -157.675 58.4474 166.416
RightHand  1.32471 16.9162 6.36113
LeftUpLeg  -10.9177 9.0074 5.74006
LeftLeg  1.97425 -9.33011 -4.99898
LeftFoot  20.1768 6.48797 -23.1701
LeftToes  -2.158e-010 -1.26819e-010 -1.05346e-011
617
root  28.2397 40.6412 26.9725 5.12289 -15.2558 10.5537
RightUpLeg  -12.048 -13.4707 -13.684
RightLeg  9.29571 2.71515 0.585115
RightFoot  -3.66668 -0.485719 6.85987
RightToes  -5.28216e-011 1.2921e-014 -6.02303e-014
Spine  11.9585 0.834538 11.8358
Spine1  -9.37997 2.62776 -8.63363
HEad  -15.594 -40.3206 -4.98056
LeftShoulder1  0.568558 2.00668 -31.8887
LeftArm  -2.50369 21.2358 -25.6452
LeftForeArm  20.5934 -45.439 -9.92605
LeftHand  0.38093 -0.900342 -6.97338
RightShoulder  5.48055 7.50335 43.4843
RightArm  6.82586 -6.87734 9.79614
RightForeArm  -169.061 61.9854 163.37
RightHand  1.1524 14.5527 6.20284
LeftUpLeg  -10.7446 10.7461 6.2767
LeftLeg  5.47609 -14.9338 -4.90046
LeftFoot  15.2421 5.95268 -25.2394
LeftToes  -2.158e-010 -1.26819e-010 -1.05346e-011
618
root  28.2895 40.5689 27.0041 3.90155 -13.8393 9.39714
RightUpLeg  -10.6572 -13.2359 -13.204
RightLeg  10.9168 2.04476 0.591409
RightFoot  -4.25408 -0.475091 7.19341
RightToes  -5.28216e-011 1.2921e-014 -6.02303e-014
Spine  10.7109 0.587121 11.1955
Spine1  -7.73708 2.1823 -6.6747
HEad  -10.5093 -39.4582 -5.41978
LeftShoulder1  0.697737 1.61461 -30.8478
LeftArm  -1.63092 19.7282 -26.9143
LeftForeArm  21.3089 -45.7145 -9.97826
LeftHand  0.397965 -0.910604 -7.27528
RightShoulder  5.66892 8.0687 42.7358
RightArm  4.05694 -4.37078 9.42673
RightForeArm  -171.889 67.3635 158.636
RightHand  0.960543 14.3271 5.16173
LeftUpLeg  -10.248 12.0923 7.53736
LeftLeg  9.83138 -19.5583 -5.00683
LeftFoot  9.72699 4.61198 -24.7778
LeftToes  -2.158e-010 -1.26819e-010 -1.05346e-011
619
root  28.3873 40.4689 27.053 2.4614 -12.3898 8.02186
RightUpLeg  -8.78205 -13.418 -13.0402
RightLeg  12.2175 2.30052 1.14919
RightFoot  -4.5061 -0.587508 9.30284
RightToes  -5.28216e-011 1.2921e-014 -6.02303e-014
Spine  9.05428 0.350582 10.3147
Spine1  -5.42354 1.72741 -4.79532
HEad  -5.01252 -39.1433 -5.28381
LeftShoulder1  0.828422 1.17176 -29.428
LeftArm  -0.342127 17.707 -28.5039
LeftForeArm  22.5196 -46.3648 -10.1388
LeftHand  0.41716 -1.01522 -7.49291
RightShoulder  5.86134 8.59057 42.2459
RightArm  2.36906 -2.38262 8.96704
RightForeArm  -179.101 73.0252 150.147
RightHand  0.700232 14.6264 3.57632
LeftUpLeg  -9.50296 11.4437 9.498
LeftLeg  13.9499 -20.0302 -5.4316
LeftFoot  7.01434 3.76747 -23.2977
LeftToes  -2.158e-010 -1.26819e-010 -1.05346e-011
